<svg version="1.1" id="Layer_1" xmlns="http://www.w3.org/2000/svg" xmlns:xlink="http://www.w3.org/1999/xlink" x="0px" y="0px"
	 width="100%" viewBox="0 0 1024 1024" enable-background="new 0 0 1024 1024" xml:space="preserve">
<path fill="#FFFFFF" opacity="1.000000" stroke="none" 
	d="
M552.000000,1025.000000 
	C368.000000,1025.000000 184.500000,1025.000000 1.000000,1025.000000 
	C1.000000,683.666687 1.000000,342.333344 1.000000,1.000000 
	C342.333344,1.000000 683.666687,1.000000 1025.000000,1.000000 
	C1025.000000,342.333344 1025.000000,683.666687 1025.000000,1025.000000 
	C867.500000,1025.000000 710.000000,1025.000000 552.000000,1025.000000 
M942.978882,731.991455 
	C942.978882,731.991455 942.943237,732.028015 943.418457,732.857239 
	C943.473816,746.967285 943.409424,761.079468 943.653198,775.186279 
	C943.732727,779.784973 944.616028,784.369812 945.068237,789.689880 
	C946.774231,795.338867 949.927551,799.891174 955.349792,802.485840 
	C966.986084,808.054016 978.758667,806.306824 990.653137,803.538696 
	C989.833740,797.055786 989.095947,791.218079 988.359436,785.391113 
	C974.258667,787.203430 969.309753,786.116150 967.268066,773.885437 
	C967.268066,760.124390 967.268066,746.363281 967.268066,732.015503 
	C974.712097,732.015503 981.750854,732.015503 988.683838,732.015503 
	C988.683838,724.998108 988.683838,718.576355 988.683838,711.968689 
	C981.643738,711.968689 974.852722,711.968689 967.466675,711.361755 
	C967.466675,702.322449 967.466675,693.283142 967.466675,684.328857 
	C958.983032,684.328857 951.438110,684.328857 943.413696,684.328857 
	C943.413696,693.518372 943.413696,702.421509 943.413696,711.771484 
	C938.532288,711.771484 934.122192,711.771484 928.759155,711.771484 
	C929.553467,718.839233 930.286926,725.365479 931.915894,732.110229 
	C935.605835,732.087524 939.295837,732.064819 942.978882,731.991455 
M694.922302,753.875183 
	C694.684570,756.916809 694.446838,759.958496 693.940735,763.674866 
	C692.467590,766.246948 691.384766,769.164673 689.460510,771.337280 
	C671.519043,791.595215 638.884888,785.171082 630.061096,759.594360 
	C625.175964,745.434204 625.528870,731.064941 630.583130,717.050659 
	C636.991943,699.280579 655.005676,689.120728 672.285034,694.400574 
	C679.753113,696.682434 686.277161,702.054016 693.913574,706.412170 
	C698.318176,702.477844 703.856689,697.530701 709.474976,692.512268 
	C708.824402,691.631897 708.466492,691.080750 708.043640,690.584961 
	C682.257935,660.352173 631.436218,664.965820 610.501648,699.517273 
	C600.094177,716.694336 598.577026,735.479553 601.020569,754.909485 
	C605.448303,790.116394 639.580200,813.454041 673.842896,804.610474 
	C683.444458,802.132141 691.509888,797.314026 696.715027,787.511047 
	C696.940918,790.026123 697.073486,791.502075 697.073975,793.868652 
	C697.407104,797.275452 697.740234,800.682312 698.068359,804.037964 
	C705.362976,804.037964 712.166016,804.037964 719.216064,804.037964 
	C719.216064,779.439148 719.216064,755.014160 719.216064,730.460632 
	C700.655640,730.460632 682.295227,730.460632 663.891479,730.460632 
	C663.891479,737.871033 663.891479,744.965820 663.891479,753.050232 
	C674.428162,753.050232 684.700134,753.050232 695.007385,753.015076 
	C695.007385,753.015076 694.957703,753.016296 694.922302,753.875183 
M158.954712,724.026123 
	C158.751724,720.073059 158.548737,716.119934 158.340759,712.069702 
	C150.457336,712.069702 142.913605,712.069702 135.304169,712.069702 
	C135.304169,742.865234 135.304169,773.324097 135.304169,804.238892 
	C143.225784,804.238892 151.024582,804.255859 158.822571,804.185730 
	C159.189911,804.182434 159.550293,803.403931 160.021103,802.056274 
	C160.021484,785.942139 160.003372,769.828003 160.028534,753.713867 
	C160.046280,742.350281 166.044174,736.149048 177.508713,736.080994 
	C181.578705,736.056763 185.654221,736.963745 190.123993,737.492493 
	C190.123993,733.381531 190.123993,728.936951 190.123993,724.492371 
	C190.123993,720.046143 190.123993,715.599854 190.123993,711.280212 
	C174.574127,707.758728 166.227798,711.519287 158.954712,724.026123 
M329.692169,712.120789 
	C321.798615,712.124878 313.905060,712.128967 305.245148,712.504272 
	C305.231750,745.313904 305.237854,778.123535 305.193481,810.933167 
	C305.179718,821.122803 303.187561,823.084900 293.225006,822.865051 
	C291.864563,829.074890 290.494171,835.330200 288.937134,842.437439 
	C293.623291,842.969421 298.017609,843.912659 302.406372,843.887573 
	C319.021729,843.792786 329.682159,833.994019 329.859436,817.403076 
	C330.231293,782.604004 329.903046,747.797424 329.692169,712.120789 
M919.000977,741.193237 
	C918.359802,726.225891 910.113586,715.704590 895.820801,711.870911 
	C884.236145,708.763611 872.721619,709.600037 861.496033,713.464905 
	C853.509949,716.214417 846.808472,720.867493 842.507568,728.723572 
	C847.796326,732.802551 852.899963,736.738708 858.231140,740.850342 
	C866.592468,732.041687 876.076660,726.931885 888.142273,731.978333 
	C894.999939,734.846619 894.998779,741.442688 895.738159,747.989746 
	C888.408325,747.989746 881.434082,747.752869 874.482666,748.049500 
	C865.719299,748.423462 857.431946,750.698730 850.175598,755.874512 
	C840.408569,762.841125 837.676453,772.746033 839.190796,784.010437 
	C840.616882,794.618652 846.909546,801.734680 857.153137,804.352966 
	C862.648254,805.757507 868.869385,806.476074 874.325500,805.362122 
	C882.042175,803.786682 889.354309,800.230164 896.642334,797.591736 
	C896.938232,798.920959 897.483459,801.369629 898.909363,804.152649 
	C905.514526,804.152649 912.119690,804.152649 918.855286,804.152649 
	C918.855286,783.180542 918.855286,762.610046 919.000977,741.193237 
M83.209923,673.851929 
	C66.927452,673.851929 50.644981,673.851929 34.425110,673.851929 
	C34.425110,717.500000 34.425110,760.729797 34.425110,804.009460 
	C42.822380,804.009460 50.919201,804.009460 59.306377,804.009460 
	C59.306377,801.637634 59.291855,799.503113 59.308735,797.368835 
	C59.415333,783.890015 59.528896,770.411255 60.622028,756.967285 
	C67.443916,756.969055 74.267868,757.080627 81.087326,756.952698 
	C104.271614,756.517822 119.783295,743.309143 123.617653,720.846863 
	C127.930145,695.583557 109.468292,673.791382 83.209923,673.851929 
M699.711365,640.391418 
	C698.314087,638.746948 696.959167,637.064270 695.513489,635.463501 
	C653.846252,589.328735 612.173035,543.199280 570.491577,497.077332 
	C564.610779,490.570007 564.588684,490.589966 556.672485,493.963501 
	C557.480713,483.352142 558.208923,472.733948 559.116394,462.131073 
	C560.385803,447.298950 563.839539,433.197632 570.719360,419.727814 
	C585.623840,390.546722 590.445618,359.386536 586.856995,326.871490 
	C584.997070,310.019623 582.982727,293.180939 581.445740,276.299194 
	C580.840576,269.652618 581.346558,262.904907 581.346558,254.920837 
	C585.999573,258.840118 589.818420,261.740051 593.269836,265.025879 
	C602.070679,273.404541 610.649902,282.015778 619.437012,290.409119 
	C623.220947,294.023499 625.570007,293.380859 627.526550,288.504700 
	C628.381714,286.373322 629.061096,284.171448 630.365051,282.410339 
	C636.186707,287.639069 641.963074,292.919281 647.842468,298.082245 
	C653.860779,303.367218 657.943665,303.074127 663.220581,297.291565 
	C690.949036,266.906250 718.672180,236.515961 746.445496,206.171631 
	C757.593384,193.991837 757.577087,191.968536 745.547485,180.802795 
	C739.750305,175.421921 735.199585,175.650482 729.779480,181.577194 
	C706.064880,207.508545 682.346802,233.436676 658.631348,259.367279 
	C656.777954,261.393860 654.935913,263.430786 653.200134,265.340210 
	C645.416931,258.763184 638.178650,252.646561 630.514709,246.096191 
	C629.808594,245.269699 629.102417,244.443222 627.548645,242.624649 
	C631.626831,243.470978 634.465576,244.114899 637.325562,244.644012 
	C649.037842,246.810776 658.794556,243.978256 665.394043,233.413727 
	C666.795227,231.170715 668.346069,228.873901 669.071899,226.381714 
	C672.286011,215.346085 671.936951,214.449356 663.587830,209.648972 
	C661.571411,208.489594 659.575256,207.293793 657.588501,206.084061 
	C636.303406,193.123840 614.949097,180.274475 593.811890,167.077255 
	C590.299133,164.884003 586.848938,161.652145 584.892334,158.068878 
	C576.865601,143.369400 566.664368,130.561554 553.190979,120.669365 
	C517.803345,94.687614 479.627319,87.253311 438.868774,106.407265 
	C399.745728,124.792625 377.859741,167.350235 386.103790,207.488693 
	C390.015625,226.534470 400.073669,241.494644 418.632172,249.415665 
	C422.059204,250.878372 425.866577,251.450058 429.498383,252.432999 
	C427.468658,248.995346 425.070709,246.696045 423.092926,244.079178 
	C405.061584,220.221588 404.026794,186.190018 421.143372,161.383087 
	C435.577911,140.463287 455.365936,129.573883 481.287689,133.048691 
	C503.227081,135.989655 519.854248,148.396179 533.839355,164.792511 
	C536.446716,167.849411 535.317444,171.305862 532.415649,172.980118 
	C529.672791,174.562653 525.901123,175.682709 522.864258,175.206467 
	C509.753448,173.150360 496.755066,170.385651 483.696350,167.984406 
	C479.466339,167.206573 478.476044,168.988174 479.546753,173.101471 
	C484.075531,190.499161 495.626556,201.284714 511.685699,207.984772 
	C513.730713,208.837982 515.777710,209.686401 518.342407,210.752625 
	C512.236572,228.614029 506.102692,245.770798 500.518799,263.104736 
	C494.445099,281.959015 481.760498,293.651611 463.024445,299.020782 
	C442.936981,304.777283 422.789185,310.324768 402.646271,315.885803 
	C378.471130,322.560089 356.655792,333.132050 340.045380,352.733093 
	C339.040558,353.918854 335.802368,354.143646 333.997711,353.571564 
	C320.442047,349.274353 310.471527,340.155579 302.163544,328.992554 
	C299.856750,325.893005 297.772888,322.627594 295.586731,319.438263 
	C295.085388,319.496948 294.584045,319.555634 294.082672,319.614319 
	C293.318176,327.836578 291.970032,336.054443 291.908173,344.281982 
	C291.770782,362.557434 299.032745,376.414551 316.950134,383.431152 
	C318.364258,383.984894 319.792480,386.570984 319.828979,388.242798 
	C320.090515,400.229980 320.381104,412.239563 319.931519,424.214569 
	C318.909424,451.437225 310.920410,476.373596 294.469666,498.376312 
	C293.257111,499.998108 292.228516,502.104492 292.022522,504.080261 
	C288.315216,539.644409 284.747894,575.223145 280.794617,611.436096 
	C275.752655,614.604187 270.664703,617.701843 265.678162,620.954895 
	C255.031494,627.900574 244.437347,634.926819 233.188538,642.144897 
	C233.546463,645.957642 236.503067,643.971924 238.044922,643.973083 
	C383.915894,644.085510 529.786926,644.078308 675.657959,644.078491 
	C682.485229,644.078552 689.312744,644.101379 696.139709,644.057800 
	C698.087524,644.045410 700.522949,644.423767 699.711365,640.391418 
M413.400696,802.011841 
	C420.939575,798.766235 427.741241,794.676392 431.524323,786.839111 
	C425.211212,782.898743 419.346100,779.238037 413.383789,775.516602 
	C405.059204,785.269958 394.829865,788.794128 382.828064,784.816040 
	C374.246735,781.971741 371.343903,774.622314 370.142944,765.756836 
	C391.575073,765.756836 412.641907,765.756836 434.217438,765.756836 
	C433.770905,759.440796 433.626923,753.619873 432.903992,747.871887 
	C430.522949,728.941833 417.885254,714.802429 400.461639,711.254395 
	C379.763733,707.039734 361.202026,714.663208 351.663696,731.892700 
	C345.069763,743.803711 343.788239,756.797241 345.864716,770.136047 
	C348.623566,787.858643 358.609497,799.321716 375.938202,804.112061 
	C388.343018,807.541199 400.612701,806.754700 413.400696,802.011841 
M270.406006,718.033386 
	C268.664917,717.063904 266.963440,716.013733 265.176788,715.137146 
	C245.764694,705.612854 219.517960,710.204468 206.665466,726.117371 
	C193.893875,741.930115 192.976212,760.024353 199.656387,778.443909 
	C208.879974,803.876404 237.930069,811.157776 261.026886,803.099548 
	C278.758392,796.913147 287.686554,783.340637 289.562164,765.149597 
	C291.483673,746.513550 286.996765,730.115417 270.406006,718.033386 
M790.263794,711.089111 
	C788.441345,710.903381 786.622925,710.646790 784.795776,710.543274 
	C771.910645,709.813354 759.793579,712.220764 749.874939,720.931396 
	C733.748108,735.094055 731.202637,753.426270 736.189941,772.966797 
	C740.918396,791.493347 753.460510,802.466248 772.551086,805.280640 
	C790.840393,807.976929 807.287292,804.269165 818.991699,788.898254 
	C840.767273,760.301392 826.029480,719.700562 790.263794,711.089111 
M522.793274,723.818787 
	C504.212830,703.549438 468.720917,708.125061 454.823212,726.157532 
	C437.974884,748.018616 441.675995,784.761230 462.415558,798.732666 
	C482.878571,812.517761 516.540833,806.699219 527.468506,787.285095 
	C521.159546,783.138062 514.837158,778.982178 508.389832,774.744202 
	C503.555969,782.243103 496.965607,785.898254 488.386139,784.780396 
	C480.496246,783.752380 474.882141,779.229370 472.155487,771.732178 
	C468.310364,761.159851 469.300537,750.758850 474.632202,740.930176 
	C477.569916,735.514709 482.327240,732.380432 488.633636,731.746521 
	C498.456177,730.759155 503.840424,736.443787 508.253693,745.757935 
	C513.740906,739.865723 518.593079,734.398376 523.751404,729.237061 
	C525.948486,727.038757 524.688232,725.866882 522.793274,723.818787 
M569.020996,768.430298 
	C569.020996,756.492371 569.020996,744.554504 569.020996,732.006409 
	C576.506836,732.006409 583.536316,732.006409 590.511475,732.006409 
	C590.511475,724.965698 590.511475,718.543762 590.511475,711.762573 
	C583.339844,711.762573 576.411743,711.762573 568.947021,711.762573 
	C568.947021,702.370911 568.947021,693.327515 568.947021,684.410706 
	C560.683594,684.410706 552.970703,684.410706 544.839600,684.410706 
	C544.839600,693.690125 544.839600,702.596252 544.839600,711.901367 
	C540.008240,711.901367 535.596008,711.901367 531.553223,711.901367 
	C531.553223,718.867798 531.553223,725.402832 531.553223,732.378113 
	C536.411072,732.378113 540.656860,732.378113 545.075073,732.378113 
	C545.075073,748.315918 544.948730,763.792297 545.112549,779.265686 
	C545.260315,793.221802 550.995667,801.724243 562.363953,804.657898 
	C572.391174,807.245544 582.379456,806.244568 592.548279,803.346802 
	C591.668396,797.110046 590.825256,791.133301 589.978394,785.130066 
	C572.862671,788.531128 568.157288,782.879578 569.020996,768.430298 
M316.762970,700.961853 
	C328.156464,700.585815 333.643341,694.315552 332.102570,683.432129 
	C331.047089,675.976868 324.977875,670.935425 317.565216,671.356506 
	C309.766388,671.799622 304.381226,676.946777 303.889252,684.428040 
	C303.271790,693.817932 306.502197,698.233887 316.762970,700.961853 
z"/>
<path fill="#01782B" opacity="1.000000" stroke="none" 
	d="
M281.150604,610.798767 
	C284.747894,575.223145 288.315216,539.644409 292.022522,504.080261 
	C292.228516,502.104492 293.257111,499.998108 294.469666,498.376312 
	C310.920410,476.373596 318.909424,451.437225 319.931519,424.214569 
	C320.381104,412.239563 320.090515,400.229980 319.828979,388.242798 
	C319.792480,386.570984 318.364258,383.984894 316.950134,383.431152 
	C299.032745,376.414551 291.770782,362.557434 291.908173,344.281982 
	C291.970032,336.054443 293.318176,327.836578 294.082672,319.614319 
	C294.584045,319.555634 295.085388,319.496948 295.586731,319.438263 
	C297.772888,322.627594 299.856750,325.893005 302.163544,328.992554 
	C310.471527,340.155579 320.442047,349.274353 333.997711,353.571564 
	C335.802368,354.143646 339.040558,353.918854 340.045380,352.733093 
	C356.655792,333.132050 378.471130,322.560089 402.646271,315.885803 
	C422.789185,310.324768 442.936981,304.777283 463.024445,299.020782 
	C481.760498,293.651611 494.445099,281.959015 500.518799,263.104736 
	C506.102692,245.770798 512.236572,228.614029 518.342407,210.752625 
	C515.777710,209.686401 513.730713,208.837982 511.685699,207.984772 
	C495.626556,201.284714 484.075531,190.499161 479.546753,173.101471 
	C478.476044,168.988174 479.466339,167.206573 483.696350,167.984406 
	C496.755066,170.385651 509.753448,173.150360 522.864258,175.206467 
	C525.901123,175.682709 529.672791,174.562653 532.415649,172.980118 
	C535.317444,171.305862 536.446716,167.849411 533.839355,164.792511 
	C519.854248,148.396179 503.227081,135.989655 481.287689,133.048691 
	C455.365936,129.573883 435.577911,140.463287 421.143372,161.383087 
	C404.026794,186.190018 405.061584,220.221588 423.092926,244.079178 
	C425.070709,246.696045 427.468658,248.995346 429.498383,252.432999 
	C425.866577,251.450058 422.059204,250.878372 418.632172,249.415665 
	C400.073669,241.494644 390.015625,226.534470 386.103790,207.488693 
	C377.859741,167.350235 399.745728,124.792625 438.868774,106.407265 
	C479.627319,87.253311 517.803345,94.687614 553.190979,120.669365 
	C566.664368,130.561554 576.865601,143.369400 584.892334,158.068878 
	C586.848938,161.652145 590.299133,164.884003 593.811890,167.077255 
	C614.949097,180.274475 636.303406,193.123840 657.588501,206.084061 
	C659.575256,207.293793 661.571411,208.489594 663.587830,209.648972 
	C671.936951,214.449356 672.286011,215.346085 669.071899,226.381714 
	C668.346069,228.873901 666.795227,231.170715 665.394043,233.413727 
	C658.794556,243.978256 649.037842,246.810776 637.325562,244.644012 
	C634.465576,244.114899 631.626831,243.470978 627.548645,242.624649 
	C629.102417,244.443222 629.808594,245.269699 630.786499,246.735672 
	C631.686829,250.224213 633.028748,253.128998 632.811401,255.912003 
	C632.130249,264.633209 630.861450,273.308502 629.820312,282.001587 
	C629.061096,284.171448 628.381714,286.373322 627.526550,288.504700 
	C625.570007,293.380859 623.220947,294.023499 619.437012,290.409119 
	C610.649902,282.015778 602.070679,273.404541 593.269836,265.025879 
	C589.818420,261.740051 585.999573,258.840118 581.346558,254.920837 
	C581.346558,262.904907 580.840576,269.652618 581.445740,276.299194 
	C582.982727,293.180939 584.997070,310.019623 586.856995,326.871490 
	C590.445618,359.386536 585.623840,390.546722 570.719360,419.727814 
	C563.839539,433.197632 560.385803,447.298950 559.116394,462.131073 
	C558.208923,472.733948 557.480713,483.352142 556.467896,494.513306 
	C549.984985,498.393372 543.748535,501.805817 537.418396,505.034576 
	C528.011292,509.832794 518.537964,514.501221 508.945740,518.827271 
	C505.072693,491.660400 501.346771,464.891144 497.749420,439.045563 
	C486.455627,442.837585 474.510162,447.918610 462.052521,450.730133 
	C449.597870,453.540924 436.630920,454.081635 422.798401,455.748871 
	C429.162720,441.605804 432.642792,428.547211 429.604736,413.563965 
	C424.789062,437.277893 413.322052,456.397247 398.019470,473.535126 
	C380.337463,493.337738 358.667480,507.666840 335.299286,519.687378 
	C332.716766,521.015747 331.558441,522.515869 330.798187,525.487671 
	C325.094421,547.783936 319.018097,569.984924 312.718750,592.304382 
	C310.743073,593.160889 309.023071,593.789856 307.484863,594.719604 
	C298.682861,600.039734 289.924072,605.431396 281.150604,610.798767 
M582.544861,190.967239 
	C580.685791,192.520340 578.012268,193.748810 577.223145,195.728409 
	C576.582458,197.335693 577.580627,200.638107 578.987366,201.742233 
	C580.561401,202.977676 583.879211,203.501587 585.580811,202.640625 
	C587.289795,201.775940 588.730896,198.880249 588.878235,196.775803 
	C589.110596,193.456329 586.748474,191.442764 582.544861,190.967239 
z"/>
<path fill="#001947" opacity="1.000000" stroke="none" 
	d="
M280.972595,611.117432 
	C289.924072,605.431396 298.682861,600.039734 307.484863,594.719604 
	C309.023071,593.789856 310.743073,593.160889 312.896362,592.565857 
	C319.984436,598.057556 326.721527,603.188416 333.049683,608.781860 
	C335.842255,611.250305 338.046692,611.174011 341.011169,609.550232 
	C357.995789,600.247009 375.033447,591.040649 392.369446,581.696899 
	C403.642456,575.838196 414.599152,570.084106 425.885193,564.131470 
	C438.605652,557.309570 451.018585,550.726501 463.382416,544.052490 
	C478.640594,535.816162 493.857880,527.504150 509.092834,519.224854 
	C518.537964,514.501221 528.011292,509.832794 537.418396,505.034576 
	C543.748535,501.805817 549.984985,498.393372 556.585999,494.947510 
	C564.588684,490.589966 564.610779,490.570007 570.491577,497.077332 
	C612.173035,543.199280 653.846252,589.328735 695.513489,635.463501 
	C696.959167,637.064270 698.314087,638.746948 699.423096,640.922485 
	C697.118286,641.969116 695.101929,642.934814 693.085205,642.935791 
	C542.096436,643.005310 391.107697,643.003113 240.118942,642.953369 
	C238.019730,642.952698 235.920746,642.279419 233.821655,641.920044 
	C244.437347,634.926819 255.031494,627.900574 265.678162,620.954895 
	C270.664703,617.701843 275.752655,614.604187 280.972595,611.117432 
z"/>
<path fill="#011A47" opacity="1.000000" stroke="none" 
	d="
M697.206055,792.978088 
	C697.073486,791.502075 696.940918,790.026123 696.715027,787.511047 
	C691.509888,797.314026 683.444458,802.132141 673.842896,804.610474 
	C639.580200,813.454041 605.448303,790.116394 601.020569,754.909485 
	C598.577026,735.479553 600.094177,716.694336 610.501648,699.517273 
	C631.436218,664.965820 682.257935,660.352173 708.043640,690.584961 
	C708.466492,691.080750 708.824402,691.631897 709.474976,692.512268 
	C703.856689,697.530701 698.318176,702.477844 693.913574,706.412170 
	C686.277161,702.054016 679.753113,696.682434 672.285034,694.400574 
	C655.005676,689.120728 636.991943,699.280579 630.583130,717.050659 
	C625.528870,731.064941 625.175964,745.434204 630.061096,759.594360 
	C638.884888,785.171082 671.519043,791.595215 689.460510,771.337280 
	C691.384766,769.164673 692.467590,766.246948 694.445435,763.231934 
	C694.952698,759.531494 694.955200,756.273865 694.957703,753.016296 
	C694.957703,753.016296 695.007385,753.015076 694.911682,752.631226 
	C689.662781,751.831604 684.512878,751.114441 679.355713,751.057251 
	C664.653809,750.894287 664.770508,751.001160 664.916565,736.413269 
	C664.952271,732.842224 666.145081,731.902222 669.546021,731.936768 
	C684.198486,732.085999 698.854370,732.092651 713.506653,731.933044 
	C716.980103,731.895203 718.091064,732.960205 718.067566,736.467285 
	C717.929016,757.115234 717.940735,777.764832 718.058716,798.413025 
	C718.077759,801.754028 717.277527,803.376282 713.622253,803.052734 
	C710.648193,802.789368 707.593933,802.696472 704.643433,803.068848 
	C699.843201,803.674622 698.525574,801.625916 698.861572,797.173462 
	C698.955261,795.932434 700.709473,793.140747 697.206055,792.978088 
z"/>
<path fill="#011947" opacity="1.000000" stroke="none" 
	d="
M83.996925,674.078979 
	C109.468292,673.791382 127.930145,695.583557 123.617653,720.846863 
	C119.783295,743.309143 104.271614,756.517822 81.087326,756.952698 
	C74.267868,757.080627 67.443916,756.969055 59.771683,757.086670 
	C58.620045,758.938293 58.068729,760.668945 58.057724,762.403076 
	C57.981705,774.378723 57.880405,786.357544 58.099476,798.329712 
	C58.168812,802.119141 56.928238,803.330017 53.240402,803.082397 
	C49.100704,802.804443 44.913841,802.807190 40.773792,803.082764 
	C37.103374,803.327026 35.893150,802.145386 35.905239,798.345581 
	C36.031155,758.758301 36.034836,719.170166 35.902935,679.582886 
	C35.889954,675.686096 37.278709,674.859436 40.842983,674.910400 
	C53.481857,675.091003 66.125099,675.015198 78.766113,674.940430 
	C80.511353,674.930115 82.253403,674.379456 83.996925,674.078979 
M58.953217,695.417297 
	C58.644951,696.142212 58.071911,696.865723 58.067970,697.592346 
	C58.005070,709.189148 57.990414,720.786377 58.059135,732.383057 
	C58.064114,733.223328 58.796028,734.059265 60.097095,735.016418 
	C66.749580,735.019958 73.413292,735.271057 80.051971,734.969971 
	C90.497444,734.496338 97.636864,727.054932 98.043152,716.692444 
	C98.535156,704.144043 93.334572,697.212891 81.695366,695.974915 
	C74.454308,695.204651 67.110962,695.396057 58.953217,695.417297 
z"/>
<path fill="#021B47" opacity="1.000000" stroke="none" 
	d="
M413.024445,802.115601 
	C400.612701,806.754700 388.343018,807.541199 375.938202,804.112061 
	C358.609497,799.321716 348.623566,787.858643 345.864716,770.136047 
	C343.788239,756.797241 345.069763,743.803711 351.663696,731.892700 
	C361.202026,714.663208 379.763733,707.039734 400.461639,711.254395 
	C417.885254,714.802429 430.522949,728.941833 432.903992,747.871887 
	C433.626923,753.619873 433.770905,759.440796 434.217438,765.756836 
	C412.641907,765.756836 391.575073,765.756836 370.142944,765.756836 
	C371.343903,774.622314 374.246735,781.971741 382.828064,784.816040 
	C394.829865,788.794128 405.059204,785.269958 413.383789,775.516602 
	C419.346100,779.238037 425.211212,782.898743 431.524323,786.839111 
	C427.741241,794.676392 420.939575,798.766235 413.024445,802.115601 
M395.490845,748.238098 
	C399.613831,748.238098 403.736786,748.238098 407.884064,748.238098 
	C407.198486,737.297852 399.715027,730.063232 389.514648,730.007446 
	C378.778412,729.948730 371.295105,737.036072 370.565582,748.238953 
	C378.552826,748.238953 386.522827,748.238953 395.490845,748.238098 
M371.594299,749.931824 
	C383.305054,749.931824 395.015808,749.931824 406.726532,749.931824 
	C395.456757,749.069153 384.195679,749.062744 372.934631,749.085876 
	C372.301666,749.087219 371.669250,749.331482 371.594299,749.931824 
z"/>
<path fill="#021A47" opacity="1.000000" stroke="none" 
	d="
M270.700562,718.244263 
	C286.996765,730.115417 291.483673,746.513550 289.562164,765.149597 
	C287.686554,783.340637 278.758392,796.913147 261.026886,803.099548 
	C237.930069,811.157776 208.879974,803.876404 199.656387,778.443909 
	C192.976212,760.024353 193.893875,741.930115 206.665466,726.117371 
	C219.517960,710.204468 245.764694,705.612854 265.176788,715.137146 
	C266.963440,716.013733 268.664917,717.063904 270.700562,718.244263 
M229.872803,781.759399 
	C242.006897,789.189026 255.739166,786.652893 261.344238,775.431519 
	C266.670898,764.767456 266.837433,753.501099 261.914673,742.696289 
	C255.734100,729.130676 235.569122,726.805908 226.285660,738.024292 
	C218.648773,747.252930 218.157898,773.338318 229.872803,781.759399 
z"/>
<path fill="#021A47" opacity="1.000000" stroke="none" 
	d="
M790.689392,711.154175 
	C826.029480,719.700562 840.767273,760.301392 818.991699,788.898254 
	C807.287292,804.269165 790.840393,807.976929 772.551086,805.280640 
	C753.460510,802.466248 740.918396,791.493347 736.189941,772.966797 
	C731.202637,753.426270 733.748108,735.094055 749.874939,720.931396 
	C759.793579,712.220764 771.910645,709.813354 784.795776,710.543274 
	C786.622925,710.646790 788.441345,710.903381 790.689392,711.154175 
M791.098083,783.845642 
	C796.336548,781.321655 799.737549,777.150330 801.529419,771.725342 
	C804.309326,763.309326 804.644104,754.774963 801.938721,746.272461 
	C798.626282,735.862061 790.403992,730.447083 779.050537,731.011597 
	C769.083313,731.507202 762.012512,737.609985 760.082031,748.239868 
	C759.142273,753.415039 758.750671,758.846375 759.157288,764.080505 
	C760.471802,781.003174 774.477722,789.807373 791.098083,783.845642 
z"/>
<path fill="#021A47" opacity="1.000000" stroke="none" 
	d="
M898.028687,803.818359 
	C897.483459,801.369629 896.938232,798.920959 896.642334,797.591736 
	C889.354309,800.230164 882.042175,803.786682 874.325500,805.362122 
	C868.869385,806.476074 862.648254,805.757507 857.153137,804.352966 
	C846.909546,801.734680 840.616882,794.618652 839.190796,784.010437 
	C837.676453,772.746033 840.408569,762.841125 850.175598,755.874512 
	C857.431946,750.698730 865.719299,748.423462 874.482666,748.049500 
	C881.434082,747.752869 888.408325,747.989746 895.738159,747.989746 
	C894.998779,741.442688 894.999939,734.846619 888.142273,731.978333 
	C876.076660,726.931885 866.592468,732.041687 858.231140,740.850342 
	C852.899963,736.738708 847.796326,732.802551 842.507568,728.723572 
	C846.808472,720.867493 853.509949,716.214417 861.496033,713.464905 
	C872.721619,709.600037 884.236145,708.763611 895.820801,711.870911 
	C910.113586,715.704590 918.359802,726.225891 918.661377,741.929565 
	C918.213745,744.475830 918.014465,746.285706 918.011841,748.095825 
	C917.988037,764.683472 917.859802,781.273132 918.094421,797.857483 
	C918.154419,802.097351 916.782593,803.229858 912.724426,803.098083 
	C907.838806,802.939331 902.928406,803.544128 898.028687,803.818359 
M881.521851,786.199951 
	C893.401672,783.218872 897.079224,777.770447 895.319458,765.987183 
	C887.380798,765.987183 879.436890,765.521484 871.578674,766.141785 
	C865.797913,766.598083 863.056152,770.417603 862.935181,775.838745 
	C862.808472,781.512695 865.139404,784.857117 870.912354,786.070435 
	C874.076538,786.735352 877.453186,786.389709 881.521851,786.199951 
z"/>
<path fill="#FB7502" opacity="1.000000" stroke="none" 
	d="
M630.092651,282.205963 
	C630.861450,273.308502 632.130249,264.633209 632.811401,255.912003 
	C633.028748,253.128998 631.686829,250.224213 630.999329,246.952545 
	C638.178650,252.646561 645.416931,258.763184 653.200134,265.340210 
	C654.935913,263.430786 656.777954,261.393860 658.631348,259.367279 
	C682.346802,233.436676 706.064880,207.508545 729.779480,181.577194 
	C735.199585,175.650482 739.750305,175.421921 745.547485,180.802795 
	C757.577087,191.968536 757.593384,193.991837 746.445496,206.171631 
	C718.672180,236.515961 690.949036,266.906250 663.220581,297.291565 
	C657.943665,303.074127 653.860779,303.367218 647.842468,298.082245 
	C641.963074,292.919281 636.186707,287.639069 630.092651,282.205963 
z"/>
<path fill="#021A47" opacity="1.000000" stroke="none" 
	d="
M523.017517,724.106567 
	C524.688232,725.866882 525.948486,727.038757 523.751404,729.237061 
	C518.593079,734.398376 513.740906,739.865723 508.253693,745.757935 
	C503.840424,736.443787 498.456177,730.759155 488.633636,731.746521 
	C482.327240,732.380432 477.569916,735.514709 474.632202,740.930176 
	C469.300537,750.758850 468.310364,761.159851 472.155487,771.732178 
	C474.882141,779.229370 480.496246,783.752380 488.386139,784.780396 
	C496.965607,785.898254 503.555969,782.243103 508.389832,774.744202 
	C514.837158,778.982178 521.159546,783.138062 527.468506,787.285095 
	C516.540833,806.699219 482.878571,812.517761 462.415558,798.732666 
	C441.675995,784.761230 437.974884,748.018616 454.823212,726.157532 
	C468.720917,708.125061 504.212830,703.549438 523.017517,724.106567 
z"/>
<path fill="#011A46" opacity="1.000000" stroke="none" 
	d="
M569.021851,768.916565 
	C568.157288,782.879578 572.862671,788.531128 589.978394,785.130066 
	C590.825256,791.133301 591.668396,797.110046 592.548279,803.346802 
	C582.379456,806.244568 572.391174,807.245544 562.363953,804.657898 
	C550.995667,801.724243 545.260315,793.221802 545.112549,779.265686 
	C544.948730,763.792297 545.075073,748.315918 545.075073,732.378113 
	C540.656860,732.378113 536.411072,732.378113 531.553223,732.378113 
	C531.553223,725.402832 531.553223,718.867798 531.553223,711.901367 
	C535.596008,711.901367 540.008240,711.901367 544.839600,711.901367 
	C544.839600,702.596252 544.839600,693.690125 544.839600,684.410706 
	C552.970703,684.410706 560.683594,684.410706 568.947021,684.410706 
	C568.947021,693.327515 568.947021,702.370911 568.947021,711.762573 
	C576.411743,711.762573 583.339844,711.762573 590.511475,711.762573 
	C590.511475,718.543762 590.511475,724.965698 590.511475,732.006409 
	C583.536316,732.006409 576.506836,732.006409 569.020996,732.006409 
	C569.020996,744.554504 569.020996,756.492371 569.021851,768.916565 
z"/>
<path fill="#011947" opacity="1.000000" stroke="none" 
	d="
M931.020386,731.891785 
	C930.286926,725.365479 929.553467,718.839233 928.759155,711.771484 
	C934.122192,711.771484 938.532288,711.771484 943.413696,711.771484 
	C943.413696,702.421509 943.413696,693.518372 943.413696,684.328857 
	C951.438110,684.328857 958.983032,684.328857 967.466675,684.328857 
	C967.466675,693.283142 967.466675,702.322449 967.647461,711.948975 
	C969.757507,712.690735 971.686462,712.974609 973.616089,712.979370 
	C987.967651,713.014709 987.908752,712.993835 987.059021,727.488220 
	C986.912170,729.993164 986.201660,731.109070 983.576965,731.025452 
	C979.426880,730.893250 975.258850,731.178223 971.118042,730.942383 
	C967.167114,730.717407 965.887573,732.320374 965.935852,736.183838 
	C966.099670,749.309631 965.997009,762.438843 966.011902,775.566711 
	C966.012390,775.999573 966.184387,776.432373 966.541199,778.108948 
	C966.881653,776.088684 966.991943,775.434387 967.102173,774.780090 
	C969.309753,786.116150 974.258667,787.203430 988.359436,785.391113 
	C989.095947,791.218079 989.833740,797.055786 990.653137,803.538696 
	C978.758667,806.306824 966.986084,808.054016 955.349792,802.485840 
	C949.927551,799.891174 946.774231,795.338867 945.363281,789.045410 
	C945.438049,784.979126 945.045898,781.558228 945.027771,778.135254 
	C944.954651,764.365967 945.064392,750.595276 944.906555,736.827393 
	C944.888123,735.220276 943.627808,733.627441 942.943237,732.028015 
	C942.943237,732.028015 942.978882,731.991455 942.710876,731.708496 
	C938.635376,731.580994 934.827881,731.736389 931.020386,731.891785 
z"/>
<path fill="#031C48" opacity="1.000000" stroke="none" 
	d="
M329.862244,712.994019 
	C329.903046,747.797424 330.231293,782.604004 329.859436,817.403076 
	C329.682159,833.994019 319.021729,843.792786 302.406372,843.887573 
	C298.017609,843.912659 293.623291,842.969421 288.937134,842.437439 
	C290.494171,835.330200 291.864563,829.074890 293.225006,822.865051 
	C303.187561,823.084900 305.179718,821.122803 305.193481,810.933167 
	C305.237854,778.123535 305.231750,745.313904 305.649292,712.778320 
	C306.053467,746.627075 306.053467,780.201721 306.053467,813.776428 
	C306.369141,813.776245 306.684814,813.776001 307.000488,813.775818 
	C307.000488,812.639465 307.000519,811.503113 307.000458,810.366760 
	C306.999542,779.591614 307.057556,748.816223 306.922455,718.041626 
	C306.905701,714.220703 307.800873,712.680359 311.901306,712.914307 
	C317.870361,713.255005 323.873596,712.996887 329.862244,712.994019 
z"/>
<path fill="#011947" opacity="1.000000" stroke="none" 
	d="
M159.033615,724.935974 
	C166.227798,711.519287 174.574127,707.758728 190.123993,711.280212 
	C190.123993,715.599854 190.123993,720.046143 190.123993,724.492371 
	C190.123993,728.936951 190.123993,733.381531 190.123993,737.492493 
	C185.654221,736.963745 181.578705,736.056763 177.508713,736.080994 
	C166.044174,736.149048 160.046280,742.350281 160.028534,753.713867 
	C160.003372,769.828003 160.021484,785.942139 159.505081,802.549561 
	C153.492401,803.048523 147.978104,802.785706 142.504684,803.145264 
	C138.150467,803.431335 136.800003,802.112000 136.844131,797.613647 
	C137.071198,774.463135 136.920959,751.309082 136.973145,728.156433 
	C136.983948,723.362610 135.468399,716.548828 137.947845,714.307800 
	C140.792114,711.737061 147.320541,713.404724 152.212250,712.887878 
	C156.444962,712.440674 157.208847,714.402161 157.182220,718.098267 
	C157.165848,720.372925 158.374817,722.656433 159.033615,724.935974 
z"/>
<path fill="#021B47" opacity="1.000000" stroke="none" 
	d="
M316.347778,700.926514 
	C306.502197,698.233887 303.271790,693.817932 303.889252,684.428040 
	C304.381226,676.946777 309.766388,671.799622 317.565216,671.356506 
	C324.977875,670.935425 331.047089,675.976868 332.102570,683.432129 
	C333.643341,694.315552 328.156464,700.585815 316.347778,700.926514 
z"/>
<path fill="#13224B" opacity="1.000000" stroke="none" 
	d="
M83.603424,673.965454 
	C82.253403,674.379456 80.511353,674.930115 78.766113,674.940430 
	C66.125099,675.015198 53.481857,675.091003 40.842983,674.910400 
	C37.278709,674.859436 35.889954,675.686096 35.902935,679.582886 
	C36.034836,719.170166 36.031155,758.758301 35.905239,798.345581 
	C35.893150,802.145386 37.103374,803.327026 40.773792,803.082764 
	C44.913841,802.807190 49.100704,802.804443 53.240402,803.082397 
	C56.928238,803.330017 58.168812,802.119141 58.099476,798.329712 
	C57.880405,786.357544 57.981705,774.378723 58.057724,762.403076 
	C58.068729,760.668945 58.620045,758.938293 59.280746,757.069214 
	C59.528896,770.411255 59.415333,783.890015 59.308735,797.368835 
	C59.291855,799.503113 59.306377,801.637634 59.306377,804.009460 
	C50.919201,804.009460 42.822380,804.009460 34.425110,804.009460 
	C34.425110,760.729797 34.425110,717.500000 34.425110,673.851929 
	C50.644981,673.851929 66.927452,673.851929 83.603424,673.965454 
z"/>
<path fill="#000630" opacity="1.000000" stroke="none" 
	d="
M233.505096,642.032471 
	C235.920746,642.279419 238.019730,642.952698 240.118942,642.953369 
	C391.107697,643.003113 542.096436,643.005310 693.085205,642.935791 
	C695.101929,642.934814 697.118286,641.969116 699.450684,641.254883 
	C700.522949,644.423767 698.087524,644.045410 696.139709,644.057800 
	C689.312744,644.101379 682.485229,644.078552 675.657959,644.078491 
	C529.786926,644.078308 383.915894,644.085510 238.044922,643.973083 
	C236.503067,643.971924 233.546463,645.957642 233.505096,642.032471 
z"/>
<path fill="#011A46" opacity="1.000000" stroke="none" 
	d="
M697.140015,793.423340 
	C700.709473,793.140747 698.955261,795.932434 698.861572,797.173462 
	C698.525574,801.625916 699.843201,803.674622 704.643433,803.068848 
	C707.593933,802.696472 710.648193,802.789368 713.622253,803.052734 
	C717.277527,803.376282 718.077759,801.754028 718.058716,798.413025 
	C717.940735,777.764832 717.929016,757.115234 718.067566,736.467285 
	C718.091064,732.960205 716.980103,731.895203 713.506653,731.933044 
	C698.854370,732.092651 684.198486,732.085999 669.546021,731.936768 
	C666.145081,731.902222 664.952271,732.842224 664.916565,736.413269 
	C664.770508,751.001160 664.653809,750.894287 679.355713,751.057251 
	C684.512878,751.114441 689.662781,751.831604 694.894043,752.648804 
	C684.700134,753.050232 674.428162,753.050232 663.891479,753.050232 
	C663.891479,744.965820 663.891479,737.871033 663.891479,730.460632 
	C682.295227,730.460632 700.655640,730.460632 719.216064,730.460632 
	C719.216064,755.014160 719.216064,779.439148 719.216064,804.037964 
	C712.166016,804.037964 705.362976,804.037964 698.068359,804.037964 
	C697.740234,800.682312 697.407104,797.275452 697.140015,793.423340 
z"/>
<path fill="#1D2C57" opacity="1.000000" stroke="none" 
	d="
M158.994171,724.481079 
	C158.374817,722.656433 157.165848,720.372925 157.182220,718.098267 
	C157.208847,714.402161 156.444962,712.440674 152.212250,712.887878 
	C147.320541,713.404724 140.792114,711.737061 137.947845,714.307800 
	C135.468399,716.548828 136.983948,723.362610 136.973145,728.156433 
	C136.920959,751.309082 137.071198,774.463135 136.844131,797.613647 
	C136.800003,802.112000 138.150467,803.431335 142.504684,803.145264 
	C147.978104,802.785706 153.492401,803.048523 159.451477,803.014648 
	C159.550293,803.403931 159.189911,804.182434 158.822571,804.185730 
	C151.024582,804.255859 143.225784,804.238892 135.304169,804.238892 
	C135.304169,773.324097 135.304169,742.865234 135.304169,712.069702 
	C142.913605,712.069702 150.457336,712.069702 158.340759,712.069702 
	C158.548737,716.119934 158.751724,720.073059 158.994171,724.481079 
z"/>
<path fill="#000630" opacity="1.000000" stroke="none" 
	d="
M967.185120,774.332764 
	C966.991943,775.434387 966.881653,776.088684 966.541199,778.108948 
	C966.184387,776.432373 966.012390,775.999573 966.011902,775.566711 
	C965.997009,762.438843 966.099670,749.309631 965.935852,736.183838 
	C965.887573,732.320374 967.167114,730.717407 971.118042,730.942383 
	C975.258850,731.178223 979.426880,730.893250 983.576965,731.025452 
	C986.201660,731.109070 986.912170,729.993164 987.059021,727.488220 
	C987.908752,712.993835 987.967651,713.014709 973.616089,712.979370 
	C971.686462,712.974609 969.757507,712.690735 967.944946,712.252441 
	C974.852722,711.968689 981.643738,711.968689 988.683838,711.968689 
	C988.683838,718.576355 988.683838,724.998108 988.683838,732.015503 
	C981.750854,732.015503 974.712097,732.015503 967.268066,732.015503 
	C967.268066,746.363281 967.268066,760.124390 967.185120,774.332764 
z"/>
<path fill="#000630" opacity="1.000000" stroke="none" 
	d="
M329.777222,712.557373 
	C323.873596,712.996887 317.870361,713.255005 311.901306,712.914307 
	C307.800873,712.680359 306.905701,714.220703 306.922455,718.041626 
	C307.057556,748.816223 306.999542,779.591614 307.000458,810.366760 
	C307.000519,811.503113 307.000488,812.639465 307.000488,813.775818 
	C306.684814,813.776001 306.369141,813.776245 306.053467,813.776428 
	C306.053467,780.201721 306.053467,746.627075 306.032471,712.592773 
	C313.905060,712.128967 321.798615,712.124878 329.777222,712.557373 
z"/>
<path fill="#000630" opacity="1.000000" stroke="none" 
	d="
M943.180847,732.442627 
	C943.627808,733.627441 944.888123,735.220276 944.906555,736.827393 
	C945.064392,750.595276 944.954651,764.365967 945.027771,778.135254 
	C945.045898,781.558228 945.438049,784.979126 945.395020,788.681030 
	C944.616028,784.369812 943.732727,779.784973 943.653198,775.186279 
	C943.409424,761.079468 943.473816,746.967285 943.180847,732.442627 
z"/>
<path fill="#000630" opacity="1.000000" stroke="none" 
	d="
M898.468994,803.985474 
	C902.928406,803.544128 907.838806,802.939331 912.724426,803.098083 
	C916.782593,803.229858 918.154419,802.097351 918.094421,797.857483 
	C917.859802,781.273132 917.988037,764.683472 918.011841,748.095825 
	C918.014465,746.285706 918.213745,744.475830 918.588562,742.352661 
	C918.855286,762.610046 918.855286,783.180542 918.855286,804.152649 
	C912.119690,804.152649 905.514526,804.152649 898.468994,803.985474 
z"/>
<path fill="#011A46" opacity="1.000000" stroke="none" 
	d="
M694.940002,753.445740 
	C694.955200,756.273865 694.952698,759.531494 694.579712,762.894592 
	C694.446838,759.958496 694.684570,756.916809 694.940002,753.445740 
z"/>
<path fill="#000630" opacity="1.000000" stroke="none" 
	d="
M931.468140,732.000977 
	C934.827881,731.736389 938.635376,731.580994 942.714355,731.733887 
	C939.295837,732.064819 935.605835,732.087524 931.468140,732.000977 
z"/>
<path fill="#FDFEFE" opacity="1.000000" stroke="none" 
	d="
M508.945740,518.827271 
	C493.857880,527.504150 478.640594,535.816162 463.382416,544.052490 
	C451.018585,550.726501 438.605652,557.309570 425.584229,563.989319 
	C419.309143,551.551208 413.586823,539.090393 408.137329,526.511353 
	C407.581360,525.228027 408.267548,523.014587 409.052094,521.609558 
	C412.690033,515.094543 416.598022,508.731049 420.349762,502.278656 
	C426.817169,491.155762 433.240417,480.007202 440.090485,468.163513 
	C432.839172,468.163513 426.402130,468.002472 419.983551,468.275604 
	C418.357025,468.344818 416.308319,469.409851 415.281830,470.684387 
	C411.747131,475.073090 408.788361,479.927460 405.232269,484.296844 
	C394.341827,497.678040 381.237000,508.649780 366.914551,518.506409 
	C375.334656,539.706970 383.693878,560.754211 392.053101,581.801392 
	C375.033447,591.040649 357.995789,600.247009 341.011169,609.550232 
	C338.046692,611.174011 335.842255,611.250305 333.049683,608.781860 
	C326.721527,603.188416 319.984436,598.057556 313.235992,592.477173 
	C319.018097,569.984924 325.094421,547.783936 330.798187,525.487671 
	C331.558441,522.515869 332.716766,521.015747 335.299286,519.687378 
	C358.667480,507.666840 380.337463,493.337738 398.019470,473.535126 
	C413.322052,456.397247 424.789062,437.277893 429.604736,413.563965 
	C432.642792,428.547211 429.162720,441.605804 422.798401,455.748871 
	C436.630920,454.081635 449.597870,453.540924 462.052521,450.730133 
	C474.510162,447.918610 486.455627,442.837585 497.749420,439.045563 
	C501.346771,464.891144 505.072693,491.660400 508.945740,518.827271 
z"/>
<path fill="#FAFBFB" opacity="1.000000" stroke="none" 
	d="
M582.947449,190.969269 
	C586.748474,191.442764 589.110596,193.456329 588.878235,196.775803 
	C588.730896,198.880249 587.289795,201.775940 585.580811,202.640625 
	C583.879211,203.501587 580.561401,202.977676 578.987366,201.742233 
	C577.580627,200.638107 576.582458,197.335693 577.223145,195.728409 
	C578.012268,193.748810 580.685791,192.520340 582.947449,190.969269 
z"/>
<path fill="#02782C" opacity="1.000000" stroke="none" 
	d="
M392.369446,581.696899 
	C383.693878,560.754211 375.334656,539.706970 366.914551,518.506409 
	C381.237000,508.649780 394.341827,497.678040 405.232269,484.296844 
	C408.788361,479.927460 411.747131,475.073090 415.281830,470.684387 
	C416.308319,469.409851 418.357025,468.344818 419.983551,468.275604 
	C426.402130,468.002472 432.839172,468.163513 440.090485,468.163513 
	C433.240417,480.007202 426.817169,491.155762 420.349762,502.278656 
	C416.598022,508.731049 412.690033,515.094543 409.052094,521.609558 
	C408.267548,523.014587 407.581360,525.228027 408.137329,526.511353 
	C413.586823,539.090393 419.309143,551.551208 425.254883,564.187866 
	C414.599152,570.084106 403.642456,575.838196 392.369446,581.696899 
z"/>
<path fill="#FAFBFB" opacity="1.000000" stroke="none" 
	d="
M59.813519,695.155945 
	C67.110962,695.396057 74.454308,695.204651 81.695366,695.974915 
	C93.334572,697.212891 98.535156,704.144043 98.043152,716.692444 
	C97.636864,727.054932 90.497444,734.496338 80.051971,734.969971 
	C73.413292,735.271057 66.749580,735.019958 59.642319,734.496948 
	C59.197365,728.819580 59.140488,723.660339 59.232609,718.503906 
	C59.371662,710.720276 59.614685,702.938477 59.813519,695.155945 
z"/>
<path fill="#000630" opacity="1.000000" stroke="none" 
	d="
M59.383369,695.286621 
	C59.614685,702.938477 59.371662,710.720276 59.232609,718.503906 
	C59.140488,723.660339 59.197365,728.819580 59.188751,734.437378 
	C58.796028,734.059265 58.064114,733.223328 58.059135,732.383057 
	C57.990414,720.786377 58.005070,709.189148 58.067970,697.592346 
	C58.071911,696.865723 58.644951,696.142212 59.383369,695.286621 
z"/>
<path fill="#FDFDFD" opacity="1.000000" stroke="none" 
	d="
M394.991821,748.238525 
	C386.522827,748.238953 378.552826,748.238953 370.565582,748.238953 
	C371.295105,737.036072 378.778412,729.948730 389.514648,730.007446 
	C399.715027,730.063232 407.198486,737.297852 407.884064,748.238098 
	C403.736786,748.238098 399.613831,748.238098 394.991821,748.238525 
z"/>
<path fill="#000630" opacity="1.000000" stroke="none" 
	d="
M371.315430,749.697205 
	C371.669250,749.331482 372.301666,749.087219 372.934631,749.085876 
	C384.195679,749.062744 395.456757,749.069153 406.726532,749.931824 
	C395.015808,749.931824 383.305054,749.931824 371.315430,749.697205 
z"/>
<path fill="#FDFDFD" opacity="1.000000" stroke="none" 
	d="
M229.589447,781.524231 
	C218.157898,773.338318 218.648773,747.252930 226.285660,738.024292 
	C235.569122,726.805908 255.734100,729.130676 261.914673,742.696289 
	C266.837433,753.501099 266.670898,764.767456 261.344238,775.431519 
	C255.739166,786.652893 242.006897,789.189026 229.589447,781.524231 
z"/>
<path fill="#FDFDFD" opacity="1.000000" stroke="none" 
	d="
M790.728149,783.958496 
	C774.477722,789.807373 760.471802,781.003174 759.157288,764.080505 
	C758.750671,758.846375 759.142273,753.415039 760.082031,748.239868 
	C762.012512,737.609985 769.083313,731.507202 779.050537,731.011597 
	C790.403992,730.447083 798.626282,735.862061 801.938721,746.272461 
	C804.644104,754.774963 804.309326,763.309326 801.529419,771.725342 
	C799.737549,777.150330 796.336548,781.321655 790.728149,783.958496 
z"/>
<path fill="#FAFBFB" opacity="1.000000" stroke="none" 
	d="
M881.127930,786.349854 
	C877.453186,786.389709 874.076538,786.735352 870.912354,786.070435 
	C865.139404,784.857117 862.808472,781.512695 862.935181,775.838745 
	C863.056152,770.417603 865.797913,766.598083 871.578674,766.141785 
	C879.436890,765.521484 887.380798,765.987183 895.319458,765.987183 
	C897.079224,777.770447 893.401672,783.218872 881.127930,786.349854 
z"/>
</svg>